<svg width="20" height="22" viewBox="0 0 20 22" fill="none" xmlns="http://www.w3.org/2000/svg">
<path fill-rule="evenodd" clip-rule="evenodd" d="M5.94465 2.44107L4.66345 0.905273L0.0561523 4.74887L1.33725 6.28467L5.94465 2.44107ZM15.3367 0.905873L19.9441 4.74947L18.6629 6.28527L14.0555 2.44167L15.3367 0.905873ZM10.5002 7.09487H9.00015V13.0949L13.7502 15.9449L14.5002 14.7149L10.5002 12.3449V7.09487ZM10.0002 3.09487C5.03015 3.09487 1.00015 7.12487 1.00015 12.0949C1.00015 17.0649 5.03015 21.0949 10.0002 21.0949C14.9702 21.0949 19.0002 17.0649 19.0002 12.0949C19.0002 7.12487 14.9702 3.09487 10.0002 3.09487ZM3.00015 12.0949C3.00015 15.9549 6.14015 19.0949 10.0002 19.0949C13.8602 19.0949 17.0002 15.9549 17.0002 12.0949C17.0002 8.23487 13.8602 5.09487 10.0002 5.09487C6.14015 5.09487 3.00015 8.23487 3.00015 12.0949Z" fill="black" fill-opacity="0.54"/>
</svg>
