<svg width="20" height="20" viewBox="0 0 20 20" fill="none" xmlns="http://www.w3.org/2000/svg">
<path d="M8.57143 7.34375V15.7812C8.57143 16.0401 8.33156 16.25 8.03571 16.25H6.96429C6.66844 16.25 6.42857 16.0401 6.42857 15.7812V7.34375C6.42857 7.08488 6.66844 6.875 6.96429 6.875H8.03571C8.33156 6.875 8.57143 7.08488 8.57143 7.34375ZM13.0357 6.875H11.9643C11.6684 6.875 11.4286 7.08488 11.4286 7.34375V15.7812C11.4286 16.0401 11.6684 16.25 11.9643 16.25H13.0357C13.3316 16.25 13.5714 16.0401 13.5714 15.7812V7.34375C13.5714 7.08488 13.3316 6.875 13.0357 6.875ZM18.9286 3.125C19.5203 3.125 20 3.54473 20 4.0625V4.53125C20 4.79012 19.7601 5 19.4643 5H18.5714V18.125C18.5714 19.1605 17.6121 20 16.4286 20H3.57143C2.38795 20 1.42857 19.1605 1.42857 18.125V5H0.535714C0.239866 5 0 4.79012 0 4.53125V4.0625C0 3.54473 0.479687 3.125 1.07143 3.125H4.39335L5.91201 0.910313C6.1024 0.632669 6.37171 0.402896 6.69372 0.243368C7.01573 0.0838412 7.37947 -3.11507e-06 7.74951 0L12.2505 0C12.6206 -3.11507e-06 12.9843 0.0838412 13.3063 0.243368C13.6283 0.402896 13.8976 0.632669 14.088 0.910313L15.6067 3.125H18.9286ZM6.89237 3.125H13.1077L12.3286 1.98879C12.3048 1.95408 12.2711 1.92536 12.2309 1.90542C12.1906 1.88548 12.1451 1.875 12.0989 1.875H7.90121C7.85495 1.875 7.80948 1.88548 7.76923 1.90542C7.72898 1.92536 7.69532 1.95408 7.67152 1.98879L6.89237 3.125ZM16.4286 5H3.57143V17.8906C3.57143 17.9528 3.59965 18.0124 3.64988 18.0564C3.70012 18.1003 3.76825 18.125 3.83929 18.125H16.1607C16.2318 18.125 16.2999 18.1003 16.3501 18.0564C16.4004 18.0124 16.4286 17.9528 16.4286 17.8906V5Z" fill="#1761AB"/>
</svg>
