<svg width="20" height="15" viewBox="0 0 20 15" fill="none" xmlns="http://www.w3.org/2000/svg">
<path d="M19.7692 6.5067C17.8114 2.60662 14.1601 0 10 0C5.8382 0 2.18765 2.60845 0.23078 6.5067C0.079686 6.80768 0 7.15066 0 7.50002C0 7.84938 0.079686 8.19236 0.23078 8.49334C2.18859 12.3934 5.83994 15 10 15C14.1618 15 17.8123 12.3915 19.7692 8.4933C19.9203 8.19233 20 7.84935 20 7.5C20 7.15065 19.9203 6.80767 19.7692 6.5067ZM10 13.0435C7.39021 13.0435 5.27779 10.5641 5.27779 7.5C5.27779 4.43633 7.3898 1.95652 10 1.95652C12.6098 1.95652 14.7222 4.43584 14.7222 7.5C14.7222 10.5637 12.6102 13.0435 10 13.0435ZM13.6111 7.5C13.6111 9.84122 11.9944 11.7391 10 11.7391C8.00563 11.7391 6.38889 9.84122 6.38889 7.5C6.38889 6.77821 6.54275 6.09868 6.81375 5.50382L6.81372 5.50512C6.81372 6.46916 7.47945 7.25063 8.30066 7.25063C9.12188 7.25063 9.7876 6.46912 9.7876 5.50512C9.7876 4.54109 9.12188 3.75958 8.30066 3.75958L8.29955 3.75962C8.80629 3.44148 9.38514 3.26087 10 3.26087C11.9944 3.26087 13.6111 5.15878 13.6111 7.5Z" fill="#1761AB"/>
</svg>
