<svg width="20" height="20" viewBox="0 0 20 20" fill="none" xmlns="http://www.w3.org/2000/svg">
<path d="M10 20C4.47581 20 0 15.5242 0 10C0 4.47581 4.47581 0 10 0C15.5242 0 20 4.47581 20 10C20 15.5242 15.5242 20 10 20ZM5.40726 10.6855L10.871 16.1492C11.25 16.5282 11.8629 16.5282 12.2379 16.1492L12.9234 15.4637C13.3024 15.0847 13.3024 14.4718 12.9234 14.0968L8.82661 10L12.9234 5.90323C13.3024 5.52419 13.3024 4.91129 12.9234 4.53629L12.2379 3.85081C11.8589 3.47177 11.246 3.47177 10.871 3.85081L5.40726 9.31452C5.02823 9.69355 5.02823 10.3065 5.40726 10.6855Z" fill="#B9C2CD"/>
</svg>
