<svg width="80" height="29" viewBox="0 0 80 29" fill="none" xmlns="http://www.w3.org/2000/svg">
<rect width="27" height="27" rx="5" fill="#1761AB" fill-opacity="0.75"/>
<path fill-rule="evenodd" clip-rule="evenodd" d="M18.6196 12.8522C18.1761 10.6022 16.2 8.91309 13.8261 8.91309C11.9413 8.91309 10.3043 9.98265 9.48913 11.5479C7.52609 11.7566 6 13.4196 6 15.4348C6 17.5935 7.75435 19.3479 9.91304 19.3479H18.3913C20.1913 19.3479 21.6522 17.887 21.6522 16.087C21.6522 14.3653 20.3152 12.9696 18.6196 12.8522ZM18.3913 18.0435H9.91304C8.47174 18.0435 7.30435 16.8761 7.30435 15.4348C7.30435 14.0979 8.30217 12.9827 9.62609 12.8457L10.3239 12.774L10.65 12.1544C11.2696 10.9609 12.4826 10.2174 13.8261 10.2174C15.5348 10.2174 17.0087 11.4305 17.3413 13.1066L17.537 14.0848L18.5348 14.1566C19.5522 14.2218 20.3478 15.0761 20.3478 16.087C20.3478 17.1631 19.4674 18.0435 18.3913 18.0435ZM12.8804 14.7827H11.2174L13.8261 12.174L16.4348 14.7827H14.7717V16.7392H12.8804V14.7827Z" fill="white"/>
<path d="M36.596 9.2H37.632V19H36.596V9.2ZM37.338 22.08C36.9647 22.08 36.6613 21.9633 36.428 21.73C36.204 21.4967 36.092 21.1887 36.092 20.806C36.092 20.022 36.484 19.294 37.268 18.622L37.632 19C37.3147 19.3267 37.1 19.6253 36.988 19.896C36.876 20.1667 36.82 20.4373 36.82 20.708C36.82 20.9413 36.8807 21.128 37.002 21.268C37.1233 21.408 37.2727 21.478 37.45 21.478C37.6367 21.478 37.8093 21.4127 37.968 21.282L38.164 21.786C37.968 21.982 37.6927 22.08 37.338 22.08ZM43.3406 15.304L41.6046 16.9V19H40.6106V8.612H41.6046V15.654L46.0006 11.636H47.2326L44.0826 14.646L47.5266 19H46.3086L43.3406 15.304ZM55.13 15.626H48.97C49.026 16.3913 49.32 17.012 49.852 17.488C50.384 17.9547 51.056 18.188 51.868 18.188C52.3254 18.188 52.7454 18.1087 53.128 17.95C53.5107 17.782 53.842 17.5393 54.122 17.222L54.682 17.866C54.3554 18.258 53.9447 18.5567 53.45 18.762C52.9647 18.9673 52.428 19.07 51.84 19.07C51.084 19.07 50.412 18.9113 49.824 18.594C49.2454 18.2673 48.7927 17.8193 48.466 17.25C48.1394 16.6807 47.976 16.0367 47.976 15.318C47.976 14.5993 48.13 13.9553 48.438 13.386C48.7554 12.8167 49.1847 12.3733 49.726 12.056C50.2767 11.7387 50.8927 11.58 51.574 11.58C52.2554 11.58 52.8667 11.7387 53.408 12.056C53.9494 12.3733 54.374 12.8167 54.682 13.386C54.99 13.946 55.144 14.59 55.144 15.318L55.13 15.626ZM51.574 12.434C50.8647 12.434 50.2674 12.6627 49.782 13.12C49.306 13.568 49.0354 14.156 48.97 14.884H54.192C54.1267 14.156 53.8514 13.568 53.366 13.12C52.89 12.6627 52.2927 12.434 51.574 12.434ZM57.1673 8.612H58.1613V19H57.1673V8.612ZM64.8324 18.552C64.6457 18.72 64.4124 18.8507 64.1324 18.944C63.8617 19.028 63.577 19.07 63.2784 19.07C62.5877 19.07 62.0557 18.8833 61.6824 18.51C61.309 18.1367 61.1224 17.6093 61.1224 16.928V12.476H59.8064V11.636H61.1224V10.026H62.1164V11.636H64.3564V12.476H62.1164V16.872C62.1164 17.3107 62.2237 17.6467 62.4384 17.88C62.6624 18.104 62.9797 18.216 63.3904 18.216C63.5957 18.216 63.7917 18.1833 63.9784 18.118C64.1744 18.0527 64.3424 17.9593 64.4824 17.838L64.8324 18.552ZM66.6419 11.636H67.6359V19H66.6419V11.636ZM67.1459 10.026C66.9405 10.026 66.7679 9.956 66.6279 9.816C66.4879 9.676 66.4179 9.508 66.4179 9.312C66.4179 9.12533 66.4879 8.962 66.6279 8.822C66.7679 8.682 66.9405 8.612 67.1459 8.612C67.3512 8.612 67.5239 8.682 67.6639 8.822C67.8039 8.95267 67.8739 9.11133 67.8739 9.298C67.8739 9.50333 67.8039 9.676 67.6639 9.816C67.5239 9.956 67.3512 10.026 67.1459 10.026Z" fill="#1F2041" fill-opacity="0.5"/>
<path d="M5 0.25H75C77.6234 0.25 79.75 2.37665 79.75 5V22C79.75 24.6234 77.6234 26.75 75 26.75H5C2.37665 26.75 0.25 24.6234 0.25 22V5C0.25 2.37665 2.37665 0.25 5 0.25Z" stroke="black" stroke-opacity="0.5" stroke-width="0.5"/>
</svg>
